<?xml version="1.0" standalone="no"?>
<!DOCTYPE svg PUBLIC "-//W3C//DTD SVG 20010904//EN"
 "http://www.w3.org/TR/2001/REC-SVG-20010904/DTD/svg10.dtd">
<svg version="1.0" xmlns="http://www.w3.org/2000/svg"
 width="2611.000000pt" height="2611.000000pt" viewBox="0 0 2611.000000 2611.000000"
 preserveAspectRatio="xMidYMid meet">
<metadata>
Created by potrace 1.14, written by Peter Selinger 2001-2017
</metadata>
<g transform="translate(0.000000,2611.000000) scale(0.100000,-0.100000)"
fill="#000000" stroke="none">
<path d="M4379 25486 c-2 -2 -47 -7 -100 -10 -52 -4 -106 -8 -120 -11 -13 -2
-51 -6 -84 -10 -33 -3 -87 -10 -120 -15 -33 -5 -82 -12 -110 -16 -27 -3 -53
-8 -56 -10 -4 -2 -24 -6 -45 -9 -22 -4 -47 -8 -56 -11 -9 -3 -25 -6 -35 -8
-10 -2 -70 -17 -133 -32 -63 -15 -118 -29 -122 -30 -5 -1 -10 -3 -13 -4 -3 -1
-8 -3 -12 -4 -56 -15 -111 -32 -173 -52 -41 -14 -82 -27 -90 -29 -21 -5 -198
-73 -234 -91 -16 -8 -33 -14 -37 -14 -13 0 -347 -158 -359 -170 -3 -3 -25 -15
-50 -27 -25 -13 -58 -31 -75 -41 -16 -9 -57 -33 -89 -51 -65 -37 -155 -95
-172 -109 -5 -5 -21 -15 -34 -22 -51 -27 -290 -207 -418 -314 -153 -127 -398
-369 -507 -501 -22 -27 -45 -53 -50 -59 -6 -6 -30 -36 -55 -66 -25 -30 -48
-56 -52 -58 -5 -2 -8 -10 -8 -17 0 -7 -4 -15 -9 -17 -18 -7 -239 -330 -317
-463 -57 -98 -64 -111 -115 -207 -28 -54 -50 -100 -49 -104 1 -4 -2 -10 -7
-13 -5 -3 -23 -37 -40 -76 -17 -38 -44 -97 -58 -129 -15 -33 -28 -65 -29 -70
-2 -6 -10 -28 -19 -50 -9 -21 -17 -44 -17 -51 0 -8 -3 -15 -7 -17 -6 -2 -54
-132 -59 -158 0 -3 -3 -12 -6 -20 -4 -8 -14 -40 -23 -70 -10 -30 -20 -62 -23
-70 -3 -8 -6 -19 -7 -25 -2 -5 -14 -53 -28 -105 -15 -52 -28 -106 -31 -120 -2
-14 -11 -52 -20 -85 -8 -33 -18 -78 -21 -100 -3 -23 -8 -52 -10 -65 -3 -14 -7
-38 -10 -55 -3 -16 -7 -41 -10 -55 -6 -37 -13 -87 -20 -155 -4 -33 -8 -71 -10
-85 -2 -14 -7 -70 -12 -125 -10 -127 -10 -16159 0 -16280 4 -49 8 -97 8 -105
1 -22 38 -300 44 -332 3 -16 7 -40 10 -55 3 -16 8 -43 10 -61 5 -33 46 -211
62 -269 1 -7 5 -21 7 -30 3 -10 5 -18 6 -18 1 0 3 -7 5 -16 1 -9 11 -43 21
-75 9 -33 19 -68 21 -79 2 -11 7 -29 12 -40 5 -11 22 -56 37 -100 37 -111 90
-248 125 -323 16 -35 29 -70 29 -78 0 -8 5 -14 10 -14 6 0 10 -6 10 -13 0 -13
94 -202 140 -282 12 -22 36 -65 53 -95 16 -30 42 -74 58 -97 16 -23 29 -44 29
-46 0 -8 84 -132 92 -135 4 -2 8 -10 8 -18 0 -8 5 -14 10 -14 6 0 10 -5 10
-10 0 -6 5 -16 10 -23 6 -7 29 -37 50 -67 50 -69 73 -98 172 -220 29 -36 57
-70 63 -76 5 -6 48 -53 95 -104 119 -131 268 -276 387 -376 31 -27 68 -59 81
-72 12 -12 26 -22 29 -22 3 0 30 -20 59 -45 28 -25 57 -45 63 -45 6 0 11 -4
11 -8 0 -5 19 -22 43 -38 138 -97 238 -164 247 -164 5 0 10 -4 10 -10 0 -5 7
-10 15 -10 8 0 15 -4 15 -10 0 -5 4 -10 10 -10 8 0 59 -29 135 -78 11 -6 27
-15 35 -19 8 -3 27 -15 42 -25 14 -10 33 -18 41 -18 9 0 17 -4 19 -8 3 -9 314
-162 338 -167 3 -1 19 -7 35 -14 17 -8 39 -17 50 -21 11 -4 45 -18 75 -30 57
-24 244 -89 270 -95 8 -1 44 -12 79 -24 35 -12 72 -21 81 -21 9 0 20 -3 24 -7
3 -4 12 -8 19 -9 7 -1 30 -6 52 -12 22 -6 51 -13 65 -16 14 -2 54 -11 90 -20
36 -8 79 -17 95 -20 77 -14 204 -36 245 -41 25 -3 56 -8 70 -10 75 -12 210
-22 378 -30 136 -7 17111 -7 17252 -1 136 6 291 19 370 31 14 2 50 6 80 10 59
7 272 44 335 59 120 28 242 59 293 75 34 10 62 17 62 14 0 -3 7 0 15 7 8 7 15
10 15 6 0 -4 13 0 30 9 16 8 33 15 37 15 5 0 31 8 58 17 28 10 53 17 57 18 3
0 10 3 14 7 4 5 14 8 23 8 9 0 29 7 45 15 15 8 32 15 37 15 5 0 33 11 63 25
30 14 57 25 61 25 3 0 34 13 68 29 34 16 64 29 67 29 5 -1 164 81 190 97 8 5
20 10 25 11 6 1 50 25 99 53 49 28 91 51 93 51 10 0 276 175 338 222 27 21 53
38 57 38 8 0 38 23 72 56 12 11 35 29 52 40 29 19 57 41 100 79 12 11 46 40
76 65 139 118 406 387 490 495 12 17 30 37 39 45 9 8 31 35 50 60 18 25 36 47
39 50 3 3 25 32 49 65 25 33 56 76 71 95 14 19 57 82 94 140 38 58 77 117 87
132 11 15 19 30 19 33 0 3 11 22 24 43 12 20 23 40 22 43 -1 4 6 15 16 25 16
19 144 266 185 359 36 81 74 171 78 185 1 3 9 23 19 45 26 60 122 348 146 440
21 78 38 145 45 175 2 8 9 38 15 65 6 28 14 60 16 73 5 29 11 56 23 117 9 48
14 80 26 175 11 89 16 125 20 150 2 14 7 75 12 135 10 144 10 16180 0 16310
-5 55 -11 118 -14 140 -3 22 -7 54 -8 70 -6 59 -26 201 -35 235 -5 19 -11 57
-15 84 -3 27 -8 52 -10 56 -4 6 -8 23 -21 90 -3 14 -19 77 -35 140 -17 63 -32
120 -34 125 -1 6 -4 17 -7 25 -3 8 -27 80 -52 160 -26 80 -53 159 -60 175 -7
17 -26 62 -42 100 -55 137 -180 399 -233 485 -11 19 -24 42 -28 50 -18 38 -77
135 -85 138 -4 2 -8 8 -8 14 0 11 -106 171 -151 229 -16 20 -29 40 -29 44 0 4
-10 19 -22 34 -13 15 -34 42 -48 61 -14 18 -29 38 -35 44 -5 6 -22 27 -36 46
-15 19 -36 46 -48 60 -12 14 -45 52 -74 85 -28 33 -80 89 -114 124 -35 35 -63
66 -63 68 0 2 -37 38 -81 81 -45 42 -97 92 -116 110 -18 17 -35 32 -37 32 -3
0 -22 17 -45 38 -22 20 -56 51 -76 67 -21 17 -43 36 -50 43 -8 6 -16 12 -19
12 -6 0 -50 37 -82 68 -7 6 -17 12 -22 12 -5 0 -17 9 -28 21 -10 12 -32 28
-49 36 -16 9 -32 19 -35 22 -11 15 -109 81 -119 81 -6 0 -11 5 -11 10 0 6 -7
10 -15 10 -8 0 -15 4 -15 9 0 5 -9 13 -20 16 -11 3 -26 12 -32 19 -17 16 -238
141 -363 204 -154 78 -266 128 -409 183 -72 28 -140 54 -151 59 -11 4 -40 14
-65 21 -25 7 -49 15 -55 18 -11 6 -80 26 -249 71 -105 29 -308 72 -390 85 -21
3 -48 7 -60 10 -12 2 -46 7 -76 10 -30 4 -66 8 -80 10 -14 2 -54 7 -90 10 -36
4 -87 10 -115 13 -56 7 -17449 14 -17456 8z"/>
</g>
</svg>
