<?xml version="1.0" standalone="no"?>
<!DOCTYPE svg PUBLIC "-//W3C//DTD SVG 20010904//EN"
 "http://www.w3.org/TR/2001/REC-SVG-20010904/DTD/svg10.dtd">
<svg version="1.0" xmlns="http://www.w3.org/2000/svg"
 width="530.000000pt" height="530.000000pt" viewBox="0 0 530.000000 530.000000"
 preserveAspectRatio="xMidYMid meet">
<metadata>
Created by potrace 1.14, written by Peter Selinger 2001-2017
</metadata>
<g transform="translate(0.000000,530.000000) scale(0.100000,-0.100000)"
fill="#000000" stroke="none">
<path d="M2488 5296 c-1 -2 -39 -6 -83 -10 -91 -7 -111 -10 -250 -36 -148 -28
-165 -32 -295 -73 -19 -6 -38 -12 -42 -13 -5 -1 -10 -3 -13 -4 -3 -1 -8 -3
-12 -5 -5 -1 -17 -5 -28 -9 -11 -4 -33 -13 -50 -19 -85 -30 -308 -137 -393
-189 -34 -21 -67 -38 -72 -38 -6 0 -10 -3 -10 -8 0 -4 -16 -16 -35 -26 -19
-11 -35 -23 -35 -28 0 -4 -4 -8 -10 -8 -13 0 -100 -62 -100 -72 0 -4 -6 -8
-12 -8 -7 0 -31 -16 -53 -36 -134 -119 -161 -143 -203 -185 -61 -59 -158 -168
-219 -246 -53 -67 -56 -72 -113 -158 -22 -33 -43 -65 -47 -71 -40 -54 -127
-221 -196 -374 -33 -74 -119 -334 -132 -398 -2 -9 -10 -52 -19 -94 -9 -42 -18
-94 -21 -115 -3 -21 -7 -47 -10 -58 -27 -135 -26 -601 1 -738 3 -16 7 -38 9
-50 16 -127 102 -450 135 -509 6 -10 10 -22 10 -27 0 -5 12 -35 27 -67 15 -33
27 -61 27 -64 3 -14 95 -193 129 -250 69 -115 189 -286 255 -362 92 -108 199
-216 276 -282 27 -22 62 -53 78 -69 16 -15 31 -27 34 -27 3 0 15 -9 27 -21 31
-29 234 -164 309 -205 97 -53 256 -129 333 -159 126 -48 140 -53 246 -83 180
-50 274 -68 474 -89 90 -10 399 -10 490 -1 39 4 91 10 116 12 26 3 60 8 75 11
16 3 45 8 64 11 19 3 38 8 41 10 4 2 24 6 45 10 22 3 64 13 94 22 30 9 57 16
60 17 3 0 45 13 94 29 259 82 544 233 773 410 143 110 240 199 356 327 81 89
89 99 122 144 16 22 34 45 40 50 6 6 33 44 60 85 27 41 53 78 58 81 5 3 8 8 6
10 -1 2 10 23 25 47 28 45 142 266 163 318 16 39 55 145 81 219 21 59 70 245
78 295 3 14 7 36 9 50 11 56 17 91 32 215 15 124 8 487 -12 625 -2 14 -6 41
-9 60 -7 52 -47 244 -53 253 -2 4 -6 19 -9 33 -9 47 -74 232 -118 337 -50 115
-159 326 -188 362 -5 6 -23 33 -40 60 -18 28 -35 52 -38 55 -3 3 -19 25 -35
50 -16 25 -32 47 -35 50 -3 3 -27 32 -55 65 -27 33 -58 69 -67 79 -10 11 -18
24 -18 28 0 5 -4 6 -10 3 -5 -3 -10 -2 -10 3 0 12 -92 105 -183 185 -39 34
-77 67 -83 72 -6 6 -26 21 -44 35 -18 14 -39 31 -46 38 -7 6 -17 12 -21 12 -5
0 -18 8 -29 18 -51 48 -249 166 -394 235 -150 71 -369 150 -495 178 -33 7 -62
13 -65 14 -90 21 -102 24 -190 36 -41 5 -86 12 -100 15 -27 6 -446 14 -452 10z"/>
</g>
</svg>
